<svg xmlns:xlink="http://www.w3.org/1999/xlink" class="hinh" viewBox="0 0 1290 770" role="img" aria-label="Lược đồ quan hệ thực thể của phân hệ nhân sự: cơ cấu tổ chức, phân quyền, chấm công và dữ liệu sinh trắc học"
     xmlns="http://www.w3.org/2000/svg"><style>svg{
--sans:"Segoe UI",system-ui,-apple-system,Arial,sans-serif;
--mono-svg:Consolas,"Cascadia Mono",ui-monospace,Menlo,monospace;
--giay:#ffffff; --giay-2:#e9efec; --muc:#141c1a; --muc-mo:#5b6b66;
--vien-dam:#a6b6b0; --nhan:#0f6b62; --nhan-nen:#e2efec; color:var(--muc); background:var(--giay);}
text{fill:currentColor;font-family:var(--sans);}
.tx-uc{font-size:12.5px;text-anchor:middle;}
.tx-tn{font-size:12.5px;font-weight:650;text-anchor:middle;}
.tx-bien{font-size:11.5px;font-weight:700;letter-spacing:.1em;text-anchor:middle;fill:var(--muc-mo);}
.tx-khuon{font-size:10.5px;text-anchor:middle;fill:var(--muc-mo);font-style:italic;}
.tx-ht{font-size:12px;text-anchor:middle;}
.tx-ghi{font-size:11px;fill:var(--muc-mo);font-style:italic;}
.tx-viec{font-size:11px;text-anchor:middle;}
.tx-sk{font-size:11px;text-anchor:middle;fill:var(--muc-mo);}
.tx-lan{font-size:11.5px;font-weight:700;text-anchor:middle;letter-spacing:.04em;}
.tx-luong{font-size:10.5px;text-anchor:middle;fill:var(--muc-mo);}
.tn circle,.tn line{fill:none;stroke:currentColor;stroke-width:1.5;}
.uc ellipse{fill:var(--giay);stroke:currentColor;stroke-width:1.25;}
.uc-phu ellipse{fill:var(--nhan-nen);stroke:var(--nhan);}
.uc-ngoai ellipse{fill:var(--giay);stroke:var(--nhan);stroke-width:1.5;stroke-dasharray:6 3.5;}
.uc-dn ellipse{fill:var(--nhan-nen);stroke:var(--nhan);stroke-width:1.6;}
.uc-dn .dn-ngan{stroke:var(--nhan);stroke-width:1;}
.goi rect{fill:none;stroke:var(--vien-dam);stroke-width:1.1;stroke-dasharray:3 3;}
.tx-goi{font-size:11px;font-weight:700;letter-spacing:.07em;fill:var(--nhan);}
.bien rect{fill:none;stroke:var(--vien-dam);stroke-width:1.2;}
.ht-ngoai rect{fill:var(--giay-2);stroke:var(--vien-dam);stroke-width:1.1;}
.lk{stroke:currentColor;stroke-width:1.05;fill:none;}
.lk-dut{stroke:currentColor;stroke-width:1.05;stroke-dasharray:5 4;fill:none;}
.lan{fill:none;stroke:var(--vien-dam);stroke-width:1;}
.lan-nhan{fill:var(--nhan-nen);stroke:var(--vien-dam);stroke-width:1;}
.viec rect{fill:var(--giay);stroke:currentColor;stroke-width:1.25;}
.viec.tu-dong rect{fill:var(--nhan-nen);stroke:var(--nhan);}
.bt rect,.bt line{fill:none;stroke:var(--nhan);stroke-width:1;}
.sk circle{fill:var(--giay);stroke:currentColor;stroke-width:1.6;}
.sk-cuoi circle{stroke-width:3.4;}
.thu{fill:none;stroke:currentColor;stroke-width:1.1;}
.cong polygon{fill:var(--giay);stroke:currentColor;stroke-width:1.25;}
.cong line{stroke:currentColor;stroke-width:1.25;}
.luong{fill:none;stroke:currentColor;stroke-width:1.2;}

/* --- so do lop va luoc do CSDL --- */
.tx-lop-ten{font-size:12.5px;font-weight:700;text-anchor:middle;}
.tx-bang-ten{font-size:12px;font-weight:700;text-anchor:middle;font-family:var(--mono-svg);}
.tx-lop{font-size:10.5px;}
.tx-lop.pt{font-style:italic;}
.tx-cot{font-size:10.5px;font-family:var(--mono-svg);}
.tx-khoa{font-size:9.5px;font-weight:700;fill:var(--nhan);}
.tx-boi{font-size:10px;fill:var(--muc-mo);text-anchor:middle;}
.lop rect.vien,.bang rect.vien{fill:var(--giay);stroke:currentColor;stroke-width:1.25;}
.lop rect.ngan-ten,.bang rect.ngan-ten{fill:var(--nhan-nen);stroke:currentColor;stroke-width:1.25;}
.lop line,.bang line{stroke:currentColor;stroke-width:1.1;}
.lop.phu rect.ngan-ten,.bang.phu rect.ngan-ten{fill:var(--giay-2);}
.qh-lop{stroke:currentColor;stroke-width:1.15;fill:none;}
.noi-bang line{stroke:currentColor;stroke-width:1.15;fill:none;}
.thoi{fill:var(--giay);stroke:currentColor;stroke-width:1.15;}
.thoi.dac{fill:currentColor;}

/* --- so do tuan tu --- */
.tx-dt{font-size:11.5px;font-weight:650;text-anchor:middle;}
.tx-tin{font-size:10.5px;text-anchor:middle;}
.tx-khoi{font-size:10px;font-weight:700;letter-spacing:.06em;}
.tx-dk{font-size:10px;font-style:italic;fill:var(--muc-mo);}
.doi-tuong rect{fill:var(--nhan-nen);stroke:var(--nhan);stroke-width:1.3;}
.doi-tuong.ngoai rect{fill:var(--giay-2);stroke:var(--vien-dam);}
.duong-doi{stroke:var(--vien-dam);stroke-width:1;stroke-dasharray:5 5;}
.kich-hoat{fill:var(--giay-2);stroke:currentColor;stroke-width:1;}
.tin{stroke:currentColor;stroke-width:1.25;fill:none;}
.tin-tra{stroke:currentColor;stroke-width:1.05;fill:none;stroke-dasharray:5 4;}
.khoi rect{fill:none;stroke:var(--vien-dam);stroke-width:1.1;}
.khoi path.the{fill:var(--giay-2);stroke:var(--vien-dam);stroke-width:1.1;}
.khoi line.chia{stroke:var(--vien-dam);stroke-width:1;stroke-dasharray:6 4;}

/* --- so do hoat dong --- */
.nut-dau circle{fill:currentColor;}
.nut-cuoi circle.ngoai{fill:none;stroke:currentColor;stroke-width:1.5;}
.nut-cuoi circle.trong{fill:currentColor;}
.hd rect{fill:var(--giay);stroke:currentColor;stroke-width:1.25;}
.hd.tu-dong rect{fill:var(--nhan-nen);stroke:var(--nhan);}
.qd polygon{fill:var(--giay);stroke:currentColor;stroke-width:1.25;}
.thanh-db{fill:currentColor;}</style><defs>
    <marker id="mui-erdC" viewBox="0 0 10 10" refX="9" refY="5"
            markerWidth="7" markerHeight="7" orient="auto-start-reverse">
      <path d="M0,0 L10,5 L0,10 z" fill="currentColor"/>
    </marker>
    <marker id="mui-rong-erdC" viewBox="0 0 12 12" refX="11" refY="6"
            markerWidth="10" markerHeight="10" orient="auto-start-reverse">
      <path d="M0,0 L12,6 L0,12 z" fill="none" stroke="currentColor" stroke-width="1.4"/>
    </marker>
  </defs><g class="bang "><rect class="vien" x="30" y="40" width="124" height="126" rx="3"/><rect class="ngan-ten" x="30" y="40" width="124" height="24" rx="3"/><text class="tx-bang-ten" x="92" y="56">bo_phan</text><line x1="30" y1="64" x2="154" y2="64"/><text class="tx-khoa" x="38" y="77">PK</text><text class="tx-cot" x="60" y="77">id_bp</text><text class="tx-cot" x="40" y="93">ma_bp</text><text class="tx-cot" x="40" y="109">ten_bp</text><text class="tx-cot" x="40" y="125">mau_sac</text><text class="tx-cot" x="40" y="141">thu_tu</text><text class="tx-cot" x="40" y="157">trang_thai</text></g><g class="bang "><rect class="vien" x="30" y="250" width="124" height="142" rx="3"/><rect class="ngan-ten" x="30" y="250" width="124" height="24" rx="3"/><text class="tx-bang-ten" x="92" y="266">chuc_danh</text><line x1="30" y1="274" x2="154" y2="274"/><text class="tx-khoa" x="38" y="287">PK</text><text class="tx-cot" x="60" y="287">id_cd</text><text class="tx-cot" x="40" y="303">ma_cd</text><text class="tx-cot" x="40" y="319">ten_cd</text><text class="tx-khoa" x="38" y="335">FK</text><text class="tx-cot" x="60" y="335">id_bp</text><text class="tx-cot" x="40" y="351">cap_bac</text><text class="tx-khoa" x="38" y="367">FK</text><text class="tx-cot" x="60" y="367">id_cd_cha</text><text class="tx-cot" x="40" y="383">la_quan_ly</text></g><g class="bang "><rect class="vien" x="30" y="500" width="124" height="94" rx="3"/><rect class="ngan-ten" x="30" y="500" width="124" height="24" rx="3"/><text class="tx-bang-ten" x="92" y="516">quyen</text><line x1="30" y1="524" x2="154" y2="524"/><text class="tx-khoa" x="38" y="537">PK</text><text class="tx-cot" x="60" y="537">id_quyen</text><text class="tx-cot" x="40" y="553">ma_quyen</text><text class="tx-cot" x="40" y="569">ten_quyen</text><text class="tx-cot" x="40" y="585">nhom</text></g><g class="bang "><rect class="vien" x="330" y="500" width="124" height="94" rx="3"/><rect class="ngan-ten" x="330" y="500" width="124" height="24" rx="3"/><text class="tx-bang-ten" x="392" y="516">chuc_danh_quyen</text><line x1="330" y1="524" x2="454" y2="524"/><text class="tx-khoa" x="338" y="537">PK</text><text class="tx-cot" x="360" y="537">id</text><text class="tx-khoa" x="338" y="553">FK</text><text class="tx-cot" x="360" y="553">id_cd</text><text class="tx-khoa" x="338" y="569">FK</text><text class="tx-cot" x="360" y="569">id_quyen</text><text class="tx-cot" x="340" y="585">duoc_phep</text></g><g class="bang "><rect class="vien" x="330" y="40" width="124" height="190" rx="3"/><rect class="ngan-ten" x="330" y="40" width="124" height="24" rx="3"/><text class="tx-bang-ten" x="392" y="56">nhan_vien</text><line x1="330" y1="64" x2="454" y2="64"/><text class="tx-khoa" x="338" y="77">PK</text><text class="tx-cot" x="360" y="77">id_nv</text><text class="tx-cot" x="340" y="93">ten</text><text class="tx-cot" x="340" y="109">sodienthoai</text><text class="tx-cot" x="340" y="125">email</text><text class="tx-khoa" x="338" y="141">FK</text><text class="tx-cot" x="360" y="141">id_cd</text><text class="tx-cot" x="340" y="157">chucvu</text><text class="tx-cot" x="340" y="173">username</text><text class="tx-cot" x="340" y="189">passwords</text><text class="tx-cot" x="340" y="205">ngayvaolam</text><text class="tx-cot" x="340" y="221">trangthai</text></g><g class="bang "><rect class="vien" x="330" y="320" width="124" height="110" rx="3"/><rect class="ngan-ten" x="330" y="320" width="124" height="24" rx="3"/><text class="tx-bang-ten" x="392" y="336">uy_quyen</text><line x1="330" y1="344" x2="454" y2="344"/><text class="tx-khoa" x="338" y="357">PK</text><text class="tx-cot" x="360" y="357">id</text><text class="tx-khoa" x="338" y="373">FK</text><text class="tx-cot" x="360" y="373">id_nv_giao</text><text class="tx-khoa" x="338" y="389">FK</text><text class="tx-cot" x="360" y="389">id_nv_nhan</text><text class="tx-cot" x="340" y="405">tu_ngay</text><text class="tx-cot" x="340" y="421">den_ngay</text></g><g class="bang "><rect class="vien" x="660" y="40" width="124" height="142" rx="3"/><rect class="ngan-ten" x="660" y="40" width="124" height="24" rx="3"/><text class="tx-bang-ten" x="722" y="56">cham_cong</text><line x1="660" y1="64" x2="784" y2="64"/><text class="tx-khoa" x="668" y="77">PK</text><text class="tx-cot" x="690" y="77">id</text><text class="tx-khoa" x="668" y="93">FK</text><text class="tx-cot" x="690" y="93">id_nv</text><text class="tx-cot" x="670" y="109">ngay</text><text class="tx-cot" x="670" y="125">gio_vao</text><text class="tx-cot" x="670" y="141">gio_ra</text><text class="tx-cot" x="670" y="157">so_gio</text><text class="tx-cot" x="670" y="173">phuong_thuc</text></g><g class="bang "><rect class="vien" x="660" y="250" width="124" height="110" rx="3"/><rect class="ngan-ten" x="660" y="250" width="124" height="24" rx="3"/><text class="tx-bang-ten" x="722" y="266">lich_lam_viec</text><line x1="660" y1="274" x2="784" y2="274"/><text class="tx-khoa" x="668" y="287">PK</text><text class="tx-cot" x="690" y="287">id</text><text class="tx-khoa" x="668" y="303">FK</text><text class="tx-cot" x="690" y="303">id_nv</text><text class="tx-cot" x="670" y="319">ngay</text><text class="tx-cot" x="670" y="335">ca</text><text class="tx-cot" x="670" y="351">trang_thai</text></g><g class="bang "><rect class="vien" x="660" y="410" width="124" height="126" rx="3"/><rect class="ngan-ten" x="660" y="410" width="124" height="24" rx="3"/><text class="tx-bang-ten" x="722" y="426">nghi_phep</text><line x1="660" y1="434" x2="784" y2="434"/><text class="tx-khoa" x="668" y="447">PK</text><text class="tx-cot" x="690" y="447">id</text><text class="tx-khoa" x="668" y="463">FK</text><text class="tx-cot" x="690" y="463">id_nv</text><text class="tx-cot" x="670" y="479">tu_ngay</text><text class="tx-cot" x="670" y="495">den_ngay</text><text class="tx-cot" x="670" y="511">ly_do</text><text class="tx-cot" x="670" y="527">trang_thai</text></g><g class="bang "><rect class="vien" x="660" y="590" width="124" height="126" rx="3"/><rect class="ngan-ten" x="660" y="590" width="124" height="24" rx="3"/><text class="tx-bang-ten" x="722" y="606">luong</text><line x1="660" y1="614" x2="784" y2="614"/><text class="tx-khoa" x="668" y="627">PK</text><text class="tx-cot" x="690" y="627">id</text><text class="tx-khoa" x="668" y="643">FK</text><text class="tx-cot" x="690" y="643">id_nv</text><text class="tx-cot" x="670" y="659">thang</text><text class="tx-cot" x="670" y="675">luong_co_ban</text><text class="tx-cot" x="670" y="691">phu_cap</text><text class="tx-cot" x="670" y="707">thuc_linh</text></g><g class="bang "><rect class="vien" x="990" y="40" width="124" height="142" rx="3"/><rect class="ngan-ten" x="990" y="40" width="124" height="24" rx="3"/><text class="tx-bang-ten" x="1052" y="56">khuon_mat_nv</text><line x1="990" y1="64" x2="1114" y2="64"/><text class="tx-khoa" x="998" y="77">PK</text><text class="tx-cot" x="1020" y="77">id</text><text class="tx-khoa" x="998" y="93">FK</text><text class="tx-cot" x="1020" y="93">id_nv</text><text class="tx-cot" x="1000" y="109">vector_dac_trung</text><text class="tx-cot" x="1000" y="125">so_chieu</text><text class="tx-cot" x="1000" y="141">duong_dan_anh</text><text class="tx-cot" x="1000" y="157">do_net</text><text class="tx-cot" x="1000" y="173">dang_dung</text></g><g class="bang "><rect class="vien" x="990" y="270" width="134" height="126" rx="3"/><rect class="ngan-ten" x="990" y="270" width="134" height="24" rx="3"/><text class="tx-bang-ten" x="1057" y="286">nhat_ky_nhan_dien</text><line x1="990" y1="294" x2="1124" y2="294"/><text class="tx-khoa" x="998" y="307">PK</text><text class="tx-cot" x="1020" y="307">id</text><text class="tx-khoa" x="998" y="323">FK</text><text class="tx-cot" x="1020" y="323">id_nv</text><text class="tx-cot" x="1000" y="339">ket_qua</text><text class="tx-cot" x="1000" y="355">do_tuong_dong</text><text class="tx-cot" x="1000" y="371">ly_do</text><text class="tx-cot" x="1000" y="387">thoi_diem</text></g><g class="bang "><rect class="vien" x="990" y="460" width="124" height="142" rx="3"/><rect class="ngan-ten" x="990" y="460" width="124" height="24" rx="3"/><text class="tx-bang-ten" x="1052" y="476">cham_cong_gps</text><line x1="990" y1="484" x2="1114" y2="484"/><text class="tx-khoa" x="998" y="497">PK</text><text class="tx-cot" x="1020" y="497">id</text><text class="tx-khoa" x="998" y="513">FK</text><text class="tx-cot" x="1020" y="513">id_nv</text><text class="tx-cot" x="1000" y="529">vi_do</text><text class="tx-cot" x="1000" y="545">kinh_do</text><text class="tx-cot" x="1000" y="561">khoang_cach_m</text><text class="tx-cot" x="1000" y="577">hop_le</text><text class="tx-cot" x="1000" y="593">anh_selfie</text></g><g class="noi-bang">
    <polyline class="qh-lop" points="92,166 92,250"/>
    <line x1="99" y1="177" x2="85" y2="177"/><line x1="92" y1="250" x2="92" y2="239"/><line x1="92" y1="250" x2="99" y2="239"/><line x1="92" y1="250" x2="85" y2="239"/><text class="tx-boi" x="154" y="192">gồm chức danh</text>
  </g><g class="noi-bang">
    <polyline class="qh-lop" points="30,350 12,350 12,390 30,390"/>
    <line x1="19" y1="357" x2="19" y2="343"/><line x1="30" y1="390" x2="19" y2="390"/><line x1="30" y1="390" x2="19" y2="383"/><line x1="30" y1="390" x2="19" y2="397"/><text class="tx-boi" x="52" y="406">cấp trên</text>
  </g><g class="noi-bang">
    <polyline class="qh-lop" points="154,310 290,310 290,230 330,230"/>
    <line x1="165" y1="303" x2="165" y2="317"/><line x1="330" y1="230" x2="319" y2="230"/><line x1="330" y1="230" x2="319" y2="223"/><line x1="330" y1="230" x2="319" y2="237"/><text class="tx-boi" x="225" y="302">giữ chức danh</text>
  </g><g class="noi-bang">
    <polyline class="qh-lop" points="154,556 330,556"/>
    <line x1="165" y1="549" x2="165" y2="563"/><line x1="330" y1="556" x2="319" y2="556"/><line x1="330" y1="556" x2="319" y2="549"/><line x1="330" y1="556" x2="319" y2="563"/>
  </g><g class="noi-bang">
    <polyline class="qh-lop" points="154,380 235,380 235,556 330,556"/>
    <line x1="165" y1="373" x2="165" y2="387"/><line x1="330" y1="556" x2="319" y2="556"/><line x1="330" y1="556" x2="319" y2="549"/><line x1="330" y1="556" x2="319" y2="563"/><text class="tx-boi" x="235" y="372">được cấp quyền</text>
  </g><g class="noi-bang">
    <polyline class="qh-lop" points="352,230 352,320"/>
    <line x1="359" y1="241" x2="345" y2="241"/><line x1="352" y1="320" x2="352" y2="309"/><line x1="352" y1="320" x2="359" y2="309"/><line x1="352" y1="320" x2="345" y2="309"/><text class="tx-boi" x="304" y="254">uỷ quyền</text>
  </g><g class="noi-bang">
    <polyline class="qh-lop" points="454,100 640,100 640,84 660,84"/>
    <line x1="465" y1="93" x2="465" y2="107"/><line x1="660" y1="84" x2="649" y2="84"/><line x1="660" y1="84" x2="649" y2="77"/><line x1="660" y1="84" x2="649" y2="91"/><text class="tx-boi" x="547" y="92">chấm công</text>
  </g><g class="noi-bang">
    <polyline class="qh-lop" points="454,130 640,130 640,294 660,294"/>
    <line x1="465" y1="123" x2="465" y2="137"/><line x1="660" y1="294" x2="649" y2="294"/><line x1="660" y1="294" x2="649" y2="287"/><line x1="660" y1="294" x2="649" y2="301"/><text class="tx-boi" x="547" y="122">đăng ký ca</text>
  </g><g class="noi-bang">
    <polyline class="qh-lop" points="454,160 640,160 640,454 660,454"/>
    <line x1="465" y1="153" x2="465" y2="167"/><line x1="660" y1="454" x2="649" y2="454"/><line x1="660" y1="454" x2="649" y2="447"/><line x1="660" y1="454" x2="649" y2="461"/><text class="tx-boi" x="547" y="152">xin nghỉ</text>
  </g><g class="noi-bang">
    <polyline class="qh-lop" points="454,190 640,190 640,634 660,634"/>
    <line x1="465" y1="183" x2="465" y2="197"/><line x1="660" y1="634" x2="649" y2="634"/><line x1="660" y1="634" x2="649" y2="627"/><line x1="660" y1="634" x2="649" y2="641"/><text class="tx-boi" x="547" y="182">bảng lương</text>
  </g><g class="noi-bang">
    <polyline class="qh-lop" points="560,230 560,382 930,382 930,84 990,84"/>
    <line x1="567" y1="241" x2="553" y2="241"/><line x1="990" y1="84" x2="979" y2="84"/><line x1="990" y1="84" x2="979" y2="77"/><line x1="990" y1="84" x2="979" y2="91"/><text class="tx-boi" x="745" y="374">mẫu khuôn mặt</text>
  </g><g class="noi-bang">
    <polyline class="qh-lop" points="590,230 590,391 950,391 950,314 990,314"/>
    <line x1="597" y1="241" x2="583" y2="241"/><line x1="990" y1="314" x2="979" y2="314"/><line x1="990" y1="314" x2="979" y2="307"/><line x1="990" y1="314" x2="979" y2="321"/><text class="tx-boi" x="770" y="383">nhật ký nhận diện</text>
  </g><g class="noi-bang">
    <polyline class="qh-lop" points="620,230 620,400 970,400 970,504 990,504"/>
    <line x1="627" y1="241" x2="613" y2="241"/><line x1="990" y1="504" x2="979" y2="504"/><line x1="990" y1="504" x2="979" y2="497"/><line x1="990" y1="504" x2="979" y2="511"/><text class="tx-boi" x="795" y="392">vị trí chấm công</text>
  </g><g class="ghi-chu">
    <text class="tx-ghi" x="30" y="730">Quyền hiệu lực của một người đến từ ba nguồn cộng lại: quyền của chức danh (chuc_danh_quyen), quyền cấp riêng cho cá nhân</text><text class="tx-ghi" x="30" y="743">(quyen_nhan_vien) và quyền tạm nhận khi được uỷ quyền trong một khoảng thời gian (uy_quyen).</text>
  </g></svg>